<?xml version="1.0" encoding="UTF-8"?>
<svg width="200px" height="200px" viewBox="0 0 200 200" version="1.1" xmlns="http://www.w3.org/2000/svg" xmlns:xlink="http://www.w3.org/1999/xlink">
    <!-- Generator: Sketch 46.2 (44496) - http://www.bohemiancoding.com/sketch -->
    <title>Request</title>
    <desc>Created with Sketch.</desc>
    <defs></defs>
    <g id="Page-1" stroke="none" stroke-width="1" fill="none" fill-rule="evenodd">
        <g id="FaceID" transform="translate(-442.000000, -201.000000)" fill="#007AFF" fill-rule="nonzero">
            <path d="M582.324984,211.309278 L605.917526,211.309278 C620.151669,211.309278 631.690722,222.848331 631.690722,237.082474 L631.690722,262.257651 C631.690722,265.10448 633.998532,267.412291 636.845361,267.412291 C639.692189,267.412291 642,265.10448 642,262.257651 L642,237.082474 C642,217.154674 625.845326,201 605.917526,201 L582.324984,201 C579.478155,201 577.170345,203.307811 577.170345,206.154639 C577.170345,209.001468 579.478155,211.309278 582.324984,211.309278 Z M631.690722,341.324984 L631.690722,364.917526 C631.690722,379.151669 620.151669,390.690722 605.917526,390.690722 L582.602851,390.690722 C579.756023,390.690722 577.448212,392.998532 577.448212,395.845361 C577.448212,398.692189 579.756023,401 582.602851,401 L605.917526,401 C625.845326,401 642,384.845326 642,364.917526 L642,341.324984 C642,338.478155 639.692189,336.170345 636.845361,336.170345 C633.998532,336.170345 631.690722,338.478155 631.690722,341.324984 Z M501.954897,390.690722 L478.082474,390.690722 C463.848331,390.690722 452.309278,379.151669 452.309278,364.917526 L452.309278,341.518283 C452.309278,338.671454 450.001468,336.363644 447.154639,336.363644 C444.307811,336.363644 442,338.671454 442,341.518283 L442,364.917526 C442,384.845326 458.154674,401 478.082474,401 L501.954897,401 C504.801726,401 507.109536,398.692189 507.109536,395.845361 C507.109536,392.998532 504.801726,390.690722 501.954897,390.690722 Z M452.309278,261.385793 C452.309278,264.232621 450.001468,266.540432 447.154639,266.540432 C444.307811,266.540432 442,264.232621 442,261.385793 L442,237.082474 C442,217.154674 458.154674,201 478.082474,201 L501.77972,201 C504.626548,201 506.934359,203.307811 506.934359,206.154639 C506.934359,209.001468 504.626548,211.309278 501.77972,211.309278 L478.082474,211.309278 C463.848331,211.309278 452.309278,222.848331 452.309278,237.082474 L452.309278,261.385793 Z M575,274.230768 C575,270.78961 577.686292,268 581,268 C584.313708,268 587,270.78961 587,274.230768 L587,288.769232 C587,292.21039 584.313708,295 581,295 C577.686292,295 575,292.21039 575,288.769232 L575,274.230768 Z M497,274.230768 C497,270.78961 499.686292,268 503,268 C506.313708,268 509,270.78961 509,274.230768 L509,288.769232 C509,292.21039 506.313708,295 503,295 C499.686292,295 497,292.21039 497,288.769232 L497,274.230768 Z M534.245225,312.667837 C537.990921,312.667837 539.243521,311.401811 539.509551,306.670176 L539.509551,274.166082 C539.509551,270.760649 542.305633,268 545.754775,268 C549.203918,268 552,270.760649 552,274.166082 L552,306.833067 L551.992048,307.144123 C551.421744,318.291824 544.988192,325 534.245225,325 C530.796082,325 528,322.239351 528,318.833918 C528,315.428486 530.796082,312.667837 534.245225,312.667837 Z M507.832302,346.211418 C505.439903,343.924581 505.382847,340.160695 507.704863,337.804542 C510.02688,335.448389 513.848668,335.392197 516.241067,337.679034 C522.821423,343.969037 531.291644,347.109557 542,347.109557 C552.708356,347.109557 561.178577,343.969037 567.758933,337.679034 C570.151332,335.392197 573.97312,335.448389 576.295137,337.804542 C578.617153,340.160695 578.560097,343.924581 576.167698,346.211418 C567.251549,354.734151 555.746227,359 542,359 C528.253773,359 516.748451,354.734151 507.832302,346.211418 Z"></path>
        </g>
    </g>
</svg>