<?xml version="1.0" encoding="UTF-8"?>
<svg width="200px" height="200px" viewBox="0 0 200 200" version="1.1" xmlns="http://www.w3.org/2000/svg" xmlns:xlink="http://www.w3.org/1999/xlink">
    <!-- Generator: Sketch 46.2 (44496) - http://www.bohemiancoding.com/sketch -->
    <title>Complet</title>
    <desc>Created with Sketch.</desc>
    <defs></defs>
    <g id="Page-1" stroke="none" stroke-width="1" fill="none" fill-rule="evenodd">
        <g id="FaceID" transform="translate(-157.000000, -201.000000)" fill-rule="nonzero" fill="#007AFF">
            <path d="M257,385 C303.391919,385 341,347.391919 341,301 C341,254.608081 303.391919,217 257,217 C210.608081,217 173,254.608081 173,301 C173,347.391919 210.608081,385 257,385 Z M257,395 C205.085234,395 163,352.914766 163,301 C163,249.085234 205.085234,207 257,207 C308.914766,207 351,249.085234 351,301 C351,352.914766 308.914766,395 257,395 Z M290,274.230768 L290,288.769232 C290,292.21039 292.686292,295 296,295 C299.313708,295 302,292.21039 302,288.769232 L302,274.230768 C302,270.78961 299.313708,268 296,268 C292.686292,268 290,270.78961 290,274.230768 Z M212,274.230768 L212,288.769232 C212,292.21039 214.686292,295 218,295 C221.313708,295 224,292.21039 224,288.769232 L224,274.230768 C224,270.78961 221.313708,268 218,268 C214.686292,268 212,270.78961 212,274.230768 Z M249.245225,312.667837 C245.796082,312.667837 243,315.428486 243,318.833918 C243,322.239351 245.796082,325 249.245225,325 C259.988192,325 266.421744,318.291824 266.992048,307.144123 L267,306.833067 L267,274.166082 C267,270.760649 264.203918,268 260.754775,268 C257.305633,268 254.509551,270.760649 254.509551,274.166082 L254.509551,306.670176 C254.243521,311.401811 252.990921,312.667837 249.245225,312.667837 Z M222.832298,346.211414 C231.748447,354.734147 243.253769,358.999996 256.999996,358.999996 C270.746223,358.999996 282.251544,354.734147 291.167694,346.211414 C293.560093,343.924577 293.617149,340.16069 291.295133,337.804538 C288.973116,335.448385 285.151327,335.392193 282.758928,337.679029 C276.178573,343.969033 267.708351,347.109552 256.999996,347.109552 C246.29164,347.109552 237.821419,343.969033 231.241063,337.679029 C228.848664,335.392193 225.026875,335.448385 222.704859,337.804538 C220.382843,340.16069 220.439899,343.924577 222.832298,346.211414 Z" id="FaceID-Done"></path>
        </g>
    </g>
</svg>